# Tiled2Unity generated file. Do not modify by hand.
# Wavefront file for 'MostOSom1_mesh_0001.obj'

# Vertices (Count = 1196)
v 0 -2 0
v -2 -2 0
v -2 0 0
v 0 0 0
v -2 -2 0
v -4 -2 0
v -4 0 0
v -2 0 0
v -3 -2 0
v -5 -2 0
v -5 0 0
v -3 0 0
v -4 -2 0
v -6 -2 0
v -6 0 0
v -4 0 0
v -5 -2 0
v -7 -2 0
v -7 0 0
v -5 0 0
v -6 -2 0
v -8 -2 0
v -8 0 0
v -6 0 0
v -7 -2 0
v -9 -2 0
v -9 0 0
v -7 0 0
v -8 -2 0
v -10 -2 0
v -10 0 0
v -8 0 0
v -9 -2 0
v -11 -2 0
v -11 0 0
v -9 0 0
v -10 -2 0
v -12 -2 0
v -12 0 0
v -10 0 0
v -11 -2 0
v -13 -2 0
v -13 0 0
v -11 0 0
v -12 -2 0
v -14 -2 0
v -14 0 0
v -12 0 0
v -13 -2 0
v -15 -2 0
v -15 0 0
v -13 0 0
v -14 -2 0
v -16 -2 0
v -16 0 0
v -14 0 0
v -15 -2 0
v -17 -2 0
v -17 0 0
v -15 0 0
v -16 -2 0
v -18 -2 0
v -18 0 0
v -16 0 0
v -17 -2 0
v -19 -2 0
v -19 0 0
v -17 0 0
v -18 -2 0
v -20 -2 0
v -20 0 0
v -18 0 0
v -19 -2 0
v -21 -2 0
v -21 0 0
v -19 0 0
v -20 -2 0
v -22 -2 0
v -22 0 0
v -20 0 0
v -21 -2 0
v -23 -2 0
v -23 0 0
v -21 0 0
v -22 -2 0
v -24 -2 0
v -24 0 0
v -22 0 0
v -23 -2 0
v -25 -2 0
v -25 0 0
v -23 0 0
v -25 -2 0
v -27 -2 0
v -27 0 0
v -25 0 0
v -26 -2 0
v -28 -2 0
v -28 0 0
v -26 0 0
v -27 -2 0
v -29 -2 0
v -29 0 0
v -27 0 0
v -28 -2 0
v -30 -2 0
v -30 0 0
v -28 0 0
v -29 -2 0
v -31 -2 0
v -31 0 0
v -29 0 0
v -30 -2 0
v -32 -2 0
v -32 0 0
v -30 0 0
v -31 -2 0
v -33 -2 0
v -33 0 0
v -31 0 0
v -32 -2 0
v -34 -2 0
v -34 0 0
v -32 0 0
v -33 -2 0
v -35 -2 0
v -35 0 0
v -33 0 0
v -34 -2 0
v -36 -2 0
v -36 0 0
v -34 0 0
v -35 -2 0
v -37 -2 0
v -37 0 0
v -35 0 0
v -36 -2 0
v -38 -2 0
v -38 0 0
v -36 0 0
v -37 -2 0
v -39 -2 0
v -39 0 0
v -37 0 0
v -38 -2 0
v -40 -2 0
v -40 0 0
v -38 0 0
v -39 -2 0
v -41 -2 0
v -41 0 0
v -39 0 0
v -40 -2 0
v -42 -2 0
v -42 0 0
v -40 0 0
v -41 -2 0
v -43 -2 0
v -43 0 0
v -41 0 0
v -42 -2 0
v -44 -2 0
v -44 0 0
v -42 0 0
v -43 -2 0
v -45 -2 0
v -45 0 0
v -43 0 0
v -44 -2 0
v -46 -2 0
v -46 0 0
v -44 0 0
v -45 -2 0
v -47 -2 0
v -47 0 0
v -45 0 0
v -47 -2 0
v -49 -2 0
v -49 0 0
v -47 0 0
v -48 -2 0
v -50 -2 0
v -50 0 0
v -48 0 0
v -49 -2 0
v -51 -2 0
v -51 0 0
v -49 0 0
v -50 -2 0
v -52 -2 0
v -52 0 0
v -50 0 0
v -51 -2 0
v -53 -2 0
v -53 0 0
v -51 0 0
v -52 -2 0
v -54 -2 0
v -54 0 0
v -52 0 0
v -53 -2 0
v -55 -2 0
v -55 0 0
v -53 0 0
v -54 -2 0
v -56 -2 0
v -56 0 0
v -54 0 0
v -55 -2 0
v -57 -2 0
v -57 0 0
v -55 0 0
v -56 -2 0
v -58 -2 0
v -58 0 0
v -56 0 0
v -57 -2 0
v -59 -2 0
v -59 0 0
v -57 0 0
v -58 -2 0
v -60 -2 0
v -60 0 0
v -58 0 0
v -59 -2 0
v -61 -2 0
v -61 0 0
v -59 0 0
v -60 -2 0
v -62 -2 0
v -62 0 0
v -60 0 0
v -61 -2 0
v -63 -2 0
v -63 0 0
v -61 0 0
v -62 -2 0
v -64 -2 0
v -64 0 0
v -62 0 0
v -63 -2 0
v -65 -2 0
v -65 0 0
v -63 0 0
v -64 -2 0
v -66 -2 0
v -66 0 0
v -64 0 0
v -65 -2 0
v -67 -2 0
v -67 0 0
v -65 0 0
v -66 -2 0
v -68 -2 0
v -68 0 0
v -66 0 0
v -67 -2 0
v -69 -2 0
v -69 0 0
v -67 0 0
v -68 -2 0
v -70 -2 0
v -70 0 0
v -68 0 0
v -69 -2 0
v -71 -2 0
v -71 0 0
v -69 0 0
v -70 -2 0
v -72 -2 0
v -72 0 0
v -70 0 0
v -71 -2 0
v -73 -2 0
v -73 0 0
v -71 0 0
v -72 -2 0
v -74 -2 0
v -74 0 0
v -72 0 0
v -73 -2 0
v -75 -2 0
v -75 0 0
v -73 0 0
v -74 -2 0
v -76 -2 0
v -76 0 0
v -74 0 0
v -75 -2 0
v -77 -2 0
v -77 0 0
v -75 0 0
v -76 -2 0
v -78 -2 0
v -78 0 0
v -76 0 0
v -77 -2 0
v -79 -2 0
v -79 0 0
v -77 0 0
v -78 -2 0
v -80 -2 0
v -80 0 0
v -78 0 0
v -79 -2 0
v -81 -2 0
v -81 0 0
v -79 0 0
v -80 -2 0
v -82 -2 0
v -82 0 0
v -80 0 0
v -81 -2 0
v -83 -2 0
v -83 0 0
v -81 0 0
v -82 -2 0
v -84 -2 0
v -84 0 0
v -82 0 0
v -83 -2 0
v -85 -2 0
v -85 0 0
v -83 0 0
v -84 -2 0
v -86 -2 0
v -86 0 0
v -84 0 0
v -85 -2 0
v -87 -2 0
v -87 0 0
v -85 0 0
v -86 -2 0
v -88 -2 0
v -88 0 0
v -86 0 0
v -87 -2 0
v -89 -2 0
v -89 0 0
v -87 0 0
v -88 -2 0
v -90 -2 0
v -90 0 0
v -88 0 0
v -89 -2 0
v -91 -2 0
v -91 0 0
v -89 0 0
v -90 -2 0
v -92 -2 0
v -92 0 0
v -90 0 0
v -91 -2 0
v -93 -2 0
v -93 0 0
v -91 0 0
v -92 -2 0
v -94 -2 0
v -94 0 0
v -92 0 0
v -93 -2 0
v -95 -2 0
v -95 0 0
v -93 0 0
v -94 -2 0
v -96 -2 0
v -96 0 0
v -94 0 0
v -95 -2 0
v -97 -2 0
v -97 0 0
v -95 0 0
v -96 -2 0
v -98 -2 0
v -98 0 0
v -96 0 0
v -97 -2 0
v -99 -2 0
v -99 0 0
v -97 0 0
v -98 -2 0
v -100 -2 0
v -100 0 0
v -98 0 0
v -99 -2 0
v -101 -2 0
v -101 0 0
v -99 0 0
v -98 -3 0
v -100 -3 0
v -100 -1 0
v -98 -1 0
v -98 -4 0
v -100 -4 0
v -100 -2 0
v -98 -2 0
v -99 -4 0
v -101 -4 0
v -101 -2 0
v -99 -2 0
v -98 -5 0
v -100 -5 0
v -100 -3 0
v -98 -3 0
v -99 -5 0
v -101 -5 0
v -101 -3 0
v -99 -3 0
v -98 -6 0
v -100 -6 0
v -100 -4 0
v -98 -4 0
v -99 -6 0
v -101 -6 0
v -101 -4 0
v -99 -4 0
v -98 -7 0
v -100 -7 0
v -100 -5 0
v -98 -5 0
v -98 -8 0
v -100 -8 0
v -100 -6 0
v -98 -6 0
v -98 -9 0
v -100 -9 0
v -100 -7 0
v -98 -7 0
v 0 -11 0
v -2 -11 0
v -2 -9 0
v 0 -9 0
v -1 -11 0
v -3 -11 0
v -3 -9 0
v -1 -9 0
v -2 -11 0
v -4 -11 0
v -4 -9 0
v -2 -9 0
v -3 -11 0
v -5 -11 0
v -5 -9 0
v -3 -9 0
v -4 -11 0
v -6 -11 0
v -6 -9 0
v -4 -9 0
v -5 -11 0
v -7 -11 0
v -7 -9 0
v -5 -9 0
v -6 -11 0
v -8 -11 0
v -8 -9 0
v -6 -9 0
v -7 -11 0
v -9 -11 0
v -9 -9 0
v -7 -9 0
v -8 -11 0
v -10 -11 0
v -10 -9 0
v -8 -9 0
v -9 -11 0
v -11 -11 0
v -11 -9 0
v -9 -9 0
v -10 -11 0
v -12 -11 0
v -12 -9 0
v -10 -9 0
v -11 -11 0
v -13 -11 0
v -13 -9 0
v -11 -9 0
v -12 -11 0
v -14 -11 0
v -14 -9 0
v -12 -9 0
v -13 -11 0
v -15 -11 0
v -15 -9 0
v -13 -9 0
v -14 -11 0
v -16 -11 0
v -16 -9 0
v -14 -9 0
v -15 -11 0
v -17 -11 0
v -17 -9 0
v -15 -9 0
v -16 -11 0
v -18 -11 0
v -18 -9 0
v -16 -9 0
v -17 -11 0
v -19 -11 0
v -19 -9 0
v -17 -9 0
v -18 -11 0
v -20 -11 0
v -20 -9 0
v -18 -9 0
v -19 -11 0
v -21 -11 0
v -21 -9 0
v -19 -9 0
v -20 -11 0
v -22 -11 0
v -22 -9 0
v -20 -9 0
v -21 -11 0
v -23 -11 0
v -23 -9 0
v -21 -9 0
v -22 -11 0
v -24 -11 0
v -24 -9 0
v -22 -9 0
v -23 -11 0
v -25 -11 0
v -25 -9 0
v -23 -9 0
v -24 -11 0
v -26 -11 0
v -26 -9 0
v -24 -9 0
v -25 -11 0
v -27 -11 0
v -27 -9 0
v -25 -9 0
v -26 -11 0
v -28 -11 0
v -28 -9 0
v -26 -9 0
v -27 -11 0
v -29 -11 0
v -29 -9 0
v -27 -9 0
v -28 -11 0
v -30 -11 0
v -30 -9 0
v -28 -9 0
v -29 -11 0
v -31 -11 0
v -31 -9 0
v -29 -9 0
v -30 -11 0
v -32 -11 0
v -32 -9 0
v -30 -9 0
v -31 -11 0
v -33 -11 0
v -33 -9 0
v -31 -9 0
v -32 -11 0
v -34 -11 0
v -34 -9 0
v -32 -9 0
v -33 -11 0
v -35 -11 0
v -35 -9 0
v -33 -9 0
v -34 -11 0
v -36 -11 0
v -36 -9 0
v -34 -9 0
v -35 -11 0
v -37 -11 0
v -37 -9 0
v -35 -9 0
v -36 -11 0
v -38 -11 0
v -38 -9 0
v -36 -9 0
v -37 -11 0
v -39 -11 0
v -39 -9 0
v -37 -9 0
v -38 -11 0
v -40 -11 0
v -40 -9 0
v -38 -9 0
v -39 -11 0
v -41 -11 0
v -41 -9 0
v -39 -9 0
v -40 -11 0
v -42 -11 0
v -42 -9 0
v -40 -9 0
v -41 -11 0
v -43 -11 0
v -43 -9 0
v -41 -9 0
v -42 -11 0
v -44 -11 0
v -44 -9 0
v -42 -9 0
v -43 -11 0
v -45 -11 0
v -45 -9 0
v -43 -9 0
v -44 -11 0
v -46 -11 0
v -46 -9 0
v -44 -9 0
v -45 -11 0
v -47 -11 0
v -47 -9 0
v -45 -9 0
v -46 -11 0
v -48 -11 0
v -48 -9 0
v -46 -9 0
v -47 -11 0
v -49 -11 0
v -49 -9 0
v -47 -9 0
v -48 -11 0
v -50 -11 0
v -50 -9 0
v -48 -9 0
v -49 -11 0
v -51 -11 0
v -51 -9 0
v -49 -9 0
v -50 -11 0
v -52 -11 0
v -52 -9 0
v -50 -9 0
v -51 -11 0
v -53 -11 0
v -53 -9 0
v -51 -9 0
v -52 -11 0
v -54 -11 0
v -54 -9 0
v -52 -9 0
v -53 -11 0
v -55 -11 0
v -55 -9 0
v -53 -9 0
v -54 -11 0
v -56 -11 0
v -56 -9 0
v -54 -9 0
v -55 -11 0
v -57 -11 0
v -57 -9 0
v -55 -9 0
v -56 -11 0
v -58 -11 0
v -58 -9 0
v -56 -9 0
v -57 -11 0
v -59 -11 0
v -59 -9 0
v -57 -9 0
v -58 -11 0
v -60 -11 0
v -60 -9 0
v -58 -9 0
v -59 -11 0
v -61 -11 0
v -61 -9 0
v -59 -9 0
v -60 -11 0
v -62 -11 0
v -62 -9 0
v -60 -9 0
v -61 -11 0
v -63 -11 0
v -63 -9 0
v -61 -9 0
v -62 -11 0
v -64 -11 0
v -64 -9 0
v -62 -9 0
v -63 -11 0
v -65 -11 0
v -65 -9 0
v -63 -9 0
v -64 -11 0
v -66 -11 0
v -66 -9 0
v -64 -9 0
v -65 -11 0
v -67 -11 0
v -67 -9 0
v -65 -9 0
v -66 -11 0
v -68 -11 0
v -68 -9 0
v -66 -9 0
v -67 -11 0
v -69 -11 0
v -69 -9 0
v -67 -9 0
v -68 -11 0
v -70 -11 0
v -70 -9 0
v -68 -9 0
v -69 -11 0
v -71 -11 0
v -71 -9 0
v -69 -9 0
v -70 -11 0
v -72 -11 0
v -72 -9 0
v -70 -9 0
v -71 -11 0
v -73 -11 0
v -73 -9 0
v -71 -9 0
v -72 -11 0
v -74 -11 0
v -74 -9 0
v -72 -9 0
v -73 -11 0
v -75 -11 0
v -75 -9 0
v -73 -9 0
v -74 -11 0
v -76 -11 0
v -76 -9 0
v -74 -9 0
v -75 -11 0
v -77 -11 0
v -77 -9 0
v -75 -9 0
v -76 -11 0
v -78 -11 0
v -78 -9 0
v -76 -9 0
v -77 -11 0
v -79 -11 0
v -79 -9 0
v -77 -9 0
v -78 -11 0
v -80 -11 0
v -80 -9 0
v -78 -9 0
v -79 -11 0
v -81 -11 0
v -81 -9 0
v -79 -9 0
v -80 -11 0
v -82 -11 0
v -82 -9 0
v -80 -9 0
v -81 -11 0
v -83 -11 0
v -83 -9 0
v -81 -9 0
v -82 -11 0
v -84 -11 0
v -84 -9 0
v -82 -9 0
v -83 -11 0
v -85 -11 0
v -85 -9 0
v -83 -9 0
v -84 -11 0
v -86 -11 0
v -86 -9 0
v -84 -9 0
v -85 -11 0
v -87 -11 0
v -87 -9 0
v -85 -9 0
v -86 -11 0
v -88 -11 0
v -88 -9 0
v -86 -9 0
v -87 -11 0
v -89 -11 0
v -89 -9 0
v -87 -9 0
v -88 -11 0
v -90 -11 0
v -90 -9 0
v -88 -9 0
v -89 -11 0
v -91 -11 0
v -91 -9 0
v -89 -9 0
v -90 -11 0
v -92 -11 0
v -92 -9 0
v -90 -9 0
v -91 -11 0
v -93 -11 0
v -93 -9 0
v -91 -9 0
v -97 -11 0
v -99 -11 0
v -99 -9 0
v -97 -9 0
v -98 -11 0
v -100 -11 0
v -100 -9 0
v -98 -9 0
v 0 -21 0
v -2 -21 0
v -2 -19 0
v 0 -19 0
v -1 -21 0
v -3 -21 0
v -3 -19 0
v -1 -19 0
v -2 -21 0
v -4 -21 0
v -4 -19 0
v -2 -19 0
v -3 -21 0
v -5 -21 0
v -5 -19 0
v -3 -19 0
v -4 -21 0
v -6 -21 0
v -6 -19 0
v -4 -19 0
v -5 -21 0
v -7 -21 0
v -7 -19 0
v -5 -19 0
v -6 -21 0
v -8 -21 0
v -8 -19 0
v -6 -19 0
v -7 -21 0
v -9 -21 0
v -9 -19 0
v -7 -19 0
v -8 -21 0
v -10 -21 0
v -10 -19 0
v -8 -19 0
v -9 -21 0
v -11 -21 0
v -11 -19 0
v -9 -19 0
v -10 -21 0
v -12 -21 0
v -12 -19 0
v -10 -19 0
v -11 -21 0
v -13 -21 0
v -13 -19 0
v -11 -19 0
v -12 -21 0
v -14 -21 0
v -14 -19 0
v -12 -19 0
v -13 -21 0
v -15 -21 0
v -15 -19 0
v -13 -19 0
v -14 -21 0
v -16 -21 0
v -16 -19 0
v -14 -19 0
v -15 -21 0
v -17 -21 0
v -17 -19 0
v -15 -19 0
v -16 -21 0
v -18 -21 0
v -18 -19 0
v -16 -19 0
v -17 -21 0
v -19 -21 0
v -19 -19 0
v -17 -19 0
v -18 -21 0
v -20 -21 0
v -20 -19 0
v -18 -19 0
v -19 -21 0
v -21 -21 0
v -21 -19 0
v -19 -19 0
v -20 -21 0
v -22 -21 0
v -22 -19 0
v -20 -19 0
v -21 -21 0
v -23 -21 0
v -23 -19 0
v -21 -19 0
v -22 -21 0
v -24 -21 0
v -24 -19 0
v -22 -19 0
v -23 -21 0
v -25 -21 0
v -25 -19 0
v -23 -19 0
v -24 -21 0
v -26 -21 0
v -26 -19 0
v -24 -19 0
v -25 -21 0
v -27 -21 0
v -27 -19 0
v -25 -19 0
v -26 -21 0
v -28 -21 0
v -28 -19 0
v -26 -19 0
v -27 -21 0
v -29 -21 0
v -29 -19 0
v -27 -19 0
v -28 -21 0
v -30 -21 0
v -30 -19 0
v -28 -19 0
v -29 -21 0
v -31 -21 0
v -31 -19 0
v -29 -19 0
v -31 -21 0
v -33 -21 0
v -33 -19 0
v -31 -19 0
v -32 -21 0
v -34 -21 0
v -34 -19 0
v -32 -19 0
v -33 -21 0
v -35 -21 0
v -35 -19 0
v -33 -19 0
v -34 -21 0
v -36 -21 0
v -36 -19 0
v -34 -19 0
v -35 -21 0
v -37 -21 0
v -37 -19 0
v -35 -19 0
v -36 -21 0
v -38 -21 0
v -38 -19 0
v -36 -19 0
v -37 -21 0
v -39 -21 0
v -39 -19 0
v -37 -19 0
v -38 -21 0
v -40 -21 0
v -40 -19 0
v -38 -19 0
v -39 -21 0
v -41 -21 0
v -41 -19 0
v -39 -19 0
v -40 -21 0
v -42 -21 0
v -42 -19 0
v -40 -19 0
v -41 -21 0
v -43 -21 0
v -43 -19 0
v -41 -19 0
v -42 -21 0
v -44 -21 0
v -44 -19 0
v -42 -19 0
v -43 -21 0
v -45 -21 0
v -45 -19 0
v -43 -19 0
v -44 -21 0
v -46 -21 0
v -46 -19 0
v -44 -19 0
v -45 -21 0
v -47 -21 0
v -47 -19 0
v -45 -19 0
v -46 -21 0
v -48 -21 0
v -48 -19 0
v -46 -19 0
v -47 -21 0
v -49 -21 0
v -49 -19 0
v -47 -19 0
v -48 -21 0
v -50 -21 0
v -50 -19 0
v -48 -19 0
v -49 -21 0
v -51 -21 0
v -51 -19 0
v -49 -19 0
v -50 -21 0
v -52 -21 0
v -52 -19 0
v -50 -19 0
v -51 -21 0
v -53 -21 0
v -53 -19 0
v -51 -19 0
v -52 -21 0
v -54 -21 0
v -54 -19 0
v -52 -19 0
v -53 -21 0
v -55 -21 0
v -55 -19 0
v -53 -19 0
v -54 -21 0
v -56 -21 0
v -56 -19 0
v -54 -19 0
v -55 -21 0
v -57 -21 0
v -57 -19 0
v -55 -19 0
v -56 -21 0
v -58 -21 0
v -58 -19 0
v -56 -19 0
v -57 -21 0
v -59 -21 0
v -59 -19 0
v -57 -19 0
v -58 -21 0
v -60 -21 0
v -60 -19 0
v -58 -19 0
v -59 -21 0
v -61 -21 0
v -61 -19 0
v -59 -19 0
v -60 -21 0
v -62 -21 0
v -62 -19 0
v -60 -19 0
v -61 -21 0
v -63 -21 0
v -63 -19 0
v -61 -19 0
v -62 -21 0
v -64 -21 0
v -64 -19 0
v -62 -19 0
v -63 -21 0
v -65 -21 0
v -65 -19 0
v -63 -19 0
v -64 -21 0
v -66 -21 0
v -66 -19 0
v -64 -19 0
v -65 -21 0
v -67 -21 0
v -67 -19 0
v -65 -19 0
v -66 -21 0
v -68 -21 0
v -68 -19 0
v -66 -19 0
v -67 -21 0
v -69 -21 0
v -69 -19 0
v -67 -19 0
v -68 -21 0
v -70 -21 0
v -70 -19 0
v -68 -19 0
v -69 -21 0
v -71 -21 0
v -71 -19 0
v -69 -19 0
v -70 -21 0
v -72 -21 0
v -72 -19 0
v -70 -19 0
v -71 -21 0
v -73 -21 0
v -73 -19 0
v -71 -19 0
v -72 -21 0
v -74 -21 0
v -74 -19 0
v -72 -19 0
v -73 -21 0
v -75 -21 0
v -75 -19 0
v -73 -19 0
v -74 -21 0
v -76 -21 0
v -76 -19 0
v -74 -19 0
v -75 -21 0
v -77 -21 0
v -77 -19 0
v -75 -19 0
v -76 -21 0
v -78 -21 0
v -78 -19 0
v -76 -19 0
v -77 -21 0
v -79 -21 0
v -79 -19 0
v -77 -19 0
v -78 -21 0
v -80 -21 0
v -80 -19 0
v -78 -19 0
v -79 -21 0
v -81 -21 0
v -81 -19 0
v -79 -19 0
v -80 -21 0
v -82 -21 0
v -82 -19 0
v -80 -19 0
v -81 -21 0
v -83 -21 0
v -83 -19 0
v -81 -19 0
v -82 -21 0
v -84 -21 0
v -84 -19 0
v -82 -19 0
v -83 -21 0
v -85 -21 0
v -85 -19 0
v -83 -19 0
v -84 -21 0
v -86 -21 0
v -86 -19 0
v -84 -19 0
v -85 -21 0
v -87 -21 0
v -87 -19 0
v -85 -19 0
v -86 -21 0
v -88 -21 0
v -88 -19 0
v -86 -19 0
v -87 -21 0
v -89 -21 0
v -89 -19 0
v -87 -19 0
v -88 -21 0
v -90 -21 0
v -90 -19 0
v -88 -19 0
v -89 -21 0
v -91 -21 0
v -91 -19 0
v -89 -19 0
v -90 -21 0
v -92 -21 0
v -92 -19 0
v -90 -19 0
v -91 -21 0
v -93 -21 0
v -93 -19 0
v -91 -19 0
v -92 -21 0
v -94 -21 0
v -94 -19 0
v -92 -19 0
v -93 -21 0
v -95 -21 0
v -95 -19 0
v -93 -19 0
v -94 -21 0
v -96 -21 0
v -96 -19 0
v -94 -19 0
v -95 -21 0
v -97 -21 0
v -97 -19 0
v -95 -19 0
v -96 -21 0
v -98 -21 0
v -98 -19 0
v -96 -19 0
v -97 -21 0
v -99 -21 0
v -99 -19 0
v -97 -19 0
v -98 -21 0
v -100 -21 0
v -100 -19 0
v -98 -19 0

# Texture cooridinates (Count = 16)
vt 0.2501221 0.8751221
vt 0.3123779 0.8751221
vt 0.3123779 0.9373779
vt 0.2501221 0.9373779
vt 0.3126221 0.8751221
vt 0.3748779 0.8751221
vt 0.3748779 0.9373779
vt 0.3126221 0.9373779
vt 0.6251221 0.8751221
vt 0.6873779 0.8751221
vt 0.6873779 0.9373779
vt 0.6251221 0.9373779
vt 0.6251221 0.9376221
vt 0.6873779 0.9376221
vt 0.6873779 0.9998779
vt 0.6251221 0.9998779

# Normal
vn 0 0 -1

# Mesh description
g MostOSom1_mesh_0001

# Faces
f 1/1/1 2/2/1 3/3/1 4/4/1
f 5/5/1 6/6/1 7/7/1 8/8/1
f 9/5/1 10/6/1 11/7/1 12/8/1
f 13/5/1 14/6/1 15/7/1 16/8/1
f 17/5/1 18/6/1 19/7/1 20/8/1
f 21/5/1 22/6/1 23/7/1 24/8/1
f 25/5/1 26/6/1 27/7/1 28/8/1
f 29/5/1 30/6/1 31/7/1 32/8/1
f 33/5/1 34/6/1 35/7/1 36/8/1
f 37/5/1 38/6/1 39/7/1 40/8/1
f 41/5/1 42/6/1 43/7/1 44/8/1
f 45/5/1 46/6/1 47/7/1 48/8/1
f 49/5/1 50/6/1 51/7/1 52/8/1
f 53/5/1 54/6/1 55/7/1 56/8/1
f 57/5/1 58/6/1 59/7/1 60/8/1
f 61/5/1 62/6/1 63/7/1 64/8/1
f 65/5/1 66/6/1 67/7/1 68/8/1
f 69/5/1 70/6/1 71/7/1 72/8/1
f 73/5/1 74/6/1 75/7/1 76/8/1
f 77/5/1 78/6/1 79/7/1 80/8/1
f 81/5/1 82/6/1 83/7/1 84/8/1
f 85/5/1 86/6/1 87/7/1 88/8/1
f 89/5/1 90/6/1 91/7/1 92/8/1
f 93/5/1 94/6/1 95/7/1 96/8/1
f 97/5/1 98/6/1 99/7/1 100/8/1
f 101/5/1 102/6/1 103/7/1 104/8/1
f 105/5/1 106/6/1 107/7/1 108/8/1
f 109/5/1 110/6/1 111/7/1 112/8/1
f 113/5/1 114/6/1 115/7/1 116/8/1
f 117/5/1 118/6/1 119/7/1 120/8/1
f 121/5/1 122/6/1 123/7/1 124/8/1
f 125/5/1 126/6/1 127/7/1 128/8/1
f 129/5/1 130/6/1 131/7/1 132/8/1
f 133/5/1 134/6/1 135/7/1 136/8/1
f 137/5/1 138/6/1 139/7/1 140/8/1
f 141/5/1 142/6/1 143/7/1 144/8/1
f 145/5/1 146/6/1 147/7/1 148/8/1
f 149/5/1 150/6/1 151/7/1 152/8/1
f 153/5/1 154/6/1 155/7/1 156/8/1
f 157/5/1 158/6/1 159/7/1 160/8/1
f 161/5/1 162/6/1 163/7/1 164/8/1
f 165/5/1 166/6/1 167/7/1 168/8/1
f 169/5/1 170/6/1 171/7/1 172/8/1
f 173/5/1 174/6/1 175/7/1 176/8/1
f 177/5/1 178/6/1 179/7/1 180/8/1
f 181/5/1 182/6/1 183/7/1 184/8/1
f 185/5/1 186/6/1 187/7/1 188/8/1
f 189/5/1 190/6/1 191/7/1 192/8/1
f 193/5/1 194/6/1 195/7/1 196/8/1
f 197/5/1 198/6/1 199/7/1 200/8/1
f 201/5/1 202/6/1 203/7/1 204/8/1
f 205/5/1 206/6/1 207/7/1 208/8/1
f 209/5/1 210/6/1 211/7/1 212/8/1
f 213/5/1 214/6/1 215/7/1 216/8/1
f 217/5/1 218/6/1 219/7/1 220/8/1
f 221/5/1 222/6/1 223/7/1 224/8/1
f 225/5/1 226/6/1 227/7/1 228/8/1
f 229/5/1 230/6/1 231/7/1 232/8/1
f 233/5/1 234/6/1 235/7/1 236/8/1
f 237/5/1 238/6/1 239/7/1 240/8/1
f 241/5/1 242/6/1 243/7/1 244/8/1
f 245/5/1 246/6/1 247/7/1 248/8/1
f 249/5/1 250/6/1 251/7/1 252/8/1
f 253/5/1 254/6/1 255/7/1 256/8/1
f 257/5/1 258/6/1 259/7/1 260/8/1
f 261/5/1 262/6/1 263/7/1 264/8/1
f 265/5/1 266/6/1 267/7/1 268/8/1
f 269/5/1 270/6/1 271/7/1 272/8/1
f 273/5/1 274/6/1 275/7/1 276/8/1
f 277/5/1 278/6/1 279/7/1 280/8/1
f 281/5/1 282/6/1 283/7/1 284/8/1
f 285/5/1 286/6/1 287/7/1 288/8/1
f 289/5/1 290/6/1 291/7/1 292/8/1
f 293/5/1 294/6/1 295/7/1 296/8/1
f 297/5/1 298/6/1 299/7/1 300/8/1
f 301/5/1 302/6/1 303/7/1 304/8/1
f 305/5/1 306/6/1 307/7/1 308/8/1
f 309/5/1 310/6/1 311/7/1 312/8/1
f 313/5/1 314/6/1 315/7/1 316/8/1
f 317/5/1 318/6/1 319/7/1 320/8/1
f 321/5/1 322/6/1 323/7/1 324/8/1
f 325/5/1 326/6/1 327/7/1 328/8/1
f 329/5/1 330/6/1 331/7/1 332/8/1
f 333/5/1 334/6/1 335/7/1 336/8/1
f 337/5/1 338/6/1 339/7/1 340/8/1
f 341/5/1 342/6/1 343/7/1 344/8/1
f 345/5/1 346/6/1 347/7/1 348/8/1
f 349/5/1 350/6/1 351/7/1 352/8/1
f 353/5/1 354/6/1 355/7/1 356/8/1
f 357/5/1 358/6/1 359/7/1 360/8/1
f 361/5/1 362/6/1 363/7/1 364/8/1
f 365/5/1 366/6/1 367/7/1 368/8/1
f 369/5/1 370/6/1 371/7/1 372/8/1
f 373/5/1 374/6/1 375/7/1 376/8/1
f 377/5/1 378/6/1 379/7/1 380/8/1
f 381/5/1 382/6/1 383/7/1 384/8/1
f 385/5/1 386/6/1 387/7/1 388/8/1
f 389/9/1 390/10/1 391/11/1 392/12/1
f 393/9/1 394/10/1 395/11/1 396/12/1
f 397/9/1 398/10/1 399/11/1 400/12/1
f 401/9/1 402/10/1 403/11/1 404/12/1
f 405/9/1 406/10/1 407/11/1 408/12/1
f 409/9/1 410/10/1 411/11/1 412/12/1
f 413/9/1 414/10/1 415/11/1 416/12/1
f 417/9/1 418/10/1 419/11/1 420/12/1
f 421/9/1 422/10/1 423/11/1 424/12/1
f 425/9/1 426/10/1 427/11/1 428/12/1
f 429/9/1 430/10/1 431/11/1 432/12/1
f 433/9/1 434/10/1 435/11/1 436/12/1
f 437/9/1 438/10/1 439/11/1 440/12/1
f 441/9/1 442/10/1 443/11/1 444/12/1
f 445/9/1 446/10/1 447/11/1 448/12/1
f 449/9/1 450/10/1 451/11/1 452/12/1
f 453/9/1 454/10/1 455/11/1 456/12/1
f 457/9/1 458/10/1 459/11/1 460/12/1
f 461/9/1 462/10/1 463/11/1 464/12/1
f 465/9/1 466/10/1 467/11/1 468/12/1
f 469/9/1 470/10/1 471/11/1 472/12/1
f 473/9/1 474/10/1 475/11/1 476/12/1
f 477/9/1 478/10/1 479/11/1 480/12/1
f 481/9/1 482/10/1 483/11/1 484/12/1
f 485/9/1 486/10/1 487/11/1 488/12/1
f 489/9/1 490/10/1 491/11/1 492/12/1
f 493/9/1 494/10/1 495/11/1 496/12/1
f 497/9/1 498/10/1 499/11/1 500/12/1
f 501/9/1 502/10/1 503/11/1 504/12/1
f 505/9/1 506/10/1 507/11/1 508/12/1
f 509/9/1 510/10/1 511/11/1 512/12/1
f 513/9/1 514/10/1 515/11/1 516/12/1
f 517/9/1 518/10/1 519/11/1 520/12/1
f 521/9/1 522/10/1 523/11/1 524/12/1
f 525/9/1 526/10/1 527/11/1 528/12/1
f 529/9/1 530/10/1 531/11/1 532/12/1
f 533/9/1 534/10/1 535/11/1 536/12/1
f 537/9/1 538/10/1 539/11/1 540/12/1
f 541/9/1 542/10/1 543/11/1 544/12/1
f 545/9/1 546/10/1 547/11/1 548/12/1
f 549/9/1 550/10/1 551/11/1 552/12/1
f 553/9/1 554/10/1 555/11/1 556/12/1
f 557/9/1 558/10/1 559/11/1 560/12/1
f 561/9/1 562/10/1 563/11/1 564/12/1
f 565/9/1 566/10/1 567/11/1 568/12/1
f 569/9/1 570/10/1 571/11/1 572/12/1
f 573/9/1 574/10/1 575/11/1 576/12/1
f 577/9/1 578/10/1 579/11/1 580/12/1
f 581/9/1 582/10/1 583/11/1 584/12/1
f 585/9/1 586/10/1 587/11/1 588/12/1
f 589/9/1 590/10/1 591/11/1 592/12/1
f 593/9/1 594/10/1 595/11/1 596/12/1
f 597/9/1 598/10/1 599/11/1 600/12/1
f 601/9/1 602/10/1 603/11/1 604/12/1
f 605/9/1 606/10/1 607/11/1 608/12/1
f 609/9/1 610/10/1 611/11/1 612/12/1
f 613/9/1 614/10/1 615/11/1 616/12/1
f 617/9/1 618/10/1 619/11/1 620/12/1
f 621/9/1 622/10/1 623/11/1 624/12/1
f 625/9/1 626/10/1 627/11/1 628/12/1
f 629/9/1 630/10/1 631/11/1 632/12/1
f 633/9/1 634/10/1 635/11/1 636/12/1
f 637/9/1 638/10/1 639/11/1 640/12/1
f 641/9/1 642/10/1 643/11/1 644/12/1
f 645/9/1 646/10/1 647/11/1 648/12/1
f 649/9/1 650/10/1 651/11/1 652/12/1
f 653/9/1 654/10/1 655/11/1 656/12/1
f 657/9/1 658/10/1 659/11/1 660/12/1
f 661/9/1 662/10/1 663/11/1 664/12/1
f 665/9/1 666/10/1 667/11/1 668/12/1
f 669/9/1 670/10/1 671/11/1 672/12/1
f 673/9/1 674/10/1 675/11/1 676/12/1
f 677/9/1 678/10/1 679/11/1 680/12/1
f 681/9/1 682/10/1 683/11/1 684/12/1
f 685/9/1 686/10/1 687/11/1 688/12/1
f 689/9/1 690/10/1 691/11/1 692/12/1
f 693/9/1 694/10/1 695/11/1 696/12/1
f 697/9/1 698/10/1 699/11/1 700/12/1
f 701/9/1 702/10/1 703/11/1 704/12/1
f 705/9/1 706/10/1 707/11/1 708/12/1
f 709/9/1 710/10/1 711/11/1 712/12/1
f 713/9/1 714/10/1 715/11/1 716/12/1
f 717/9/1 718/10/1 719/11/1 720/12/1
f 721/9/1 722/10/1 723/11/1 724/12/1
f 725/9/1 726/10/1 727/11/1 728/12/1
f 729/9/1 730/10/1 731/11/1 732/12/1
f 733/9/1 734/10/1 735/11/1 736/12/1
f 737/9/1 738/10/1 739/11/1 740/12/1
f 741/9/1 742/10/1 743/11/1 744/12/1
f 745/9/1 746/10/1 747/11/1 748/12/1
f 749/9/1 750/10/1 751/11/1 752/12/1
f 753/9/1 754/10/1 755/11/1 756/12/1
f 757/9/1 758/10/1 759/11/1 760/12/1
f 761/9/1 762/10/1 763/11/1 764/12/1
f 765/9/1 766/10/1 767/11/1 768/12/1
f 769/9/1 770/10/1 771/11/1 772/12/1
f 773/9/1 774/10/1 775/11/1 776/12/1
f 777/9/1 778/10/1 779/11/1 780/12/1
f 781/9/1 782/10/1 783/11/1 784/12/1
f 785/9/1 786/10/1 787/11/1 788/12/1
f 789/9/1 790/10/1 791/11/1 792/12/1
f 793/13/1 794/14/1 795/15/1 796/16/1
f 797/9/1 798/10/1 799/11/1 800/12/1
f 801/9/1 802/10/1 803/11/1 804/12/1
f 805/9/1 806/10/1 807/11/1 808/12/1
f 809/9/1 810/10/1 811/11/1 812/12/1
f 813/9/1 814/10/1 815/11/1 816/12/1
f 817/9/1 818/10/1 819/11/1 820/12/1
f 821/9/1 822/10/1 823/11/1 824/12/1
f 825/9/1 826/10/1 827/11/1 828/12/1
f 829/9/1 830/10/1 831/11/1 832/12/1
f 833/9/1 834/10/1 835/11/1 836/12/1
f 837/9/1 838/10/1 839/11/1 840/12/1
f 841/9/1 842/10/1 843/11/1 844/12/1
f 845/9/1 846/10/1 847/11/1 848/12/1
f 849/9/1 850/10/1 851/11/1 852/12/1
f 853/9/1 854/10/1 855/11/1 856/12/1
f 857/9/1 858/10/1 859/11/1 860/12/1
f 861/9/1 862/10/1 863/11/1 864/12/1
f 865/9/1 866/10/1 867/11/1 868/12/1
f 869/9/1 870/10/1 871/11/1 872/12/1
f 873/9/1 874/10/1 875/11/1 876/12/1
f 877/9/1 878/10/1 879/11/1 880/12/1
f 881/9/1 882/10/1 883/11/1 884/12/1
f 885/9/1 886/10/1 887/11/1 888/12/1
f 889/9/1 890/10/1 891/11/1 892/12/1
f 893/9/1 894/10/1 895/11/1 896/12/1
f 897/9/1 898/10/1 899/11/1 900/12/1
f 901/9/1 902/10/1 903/11/1 904/12/1
f 905/9/1 906/10/1 907/11/1 908/12/1
f 909/9/1 910/10/1 911/11/1 912/12/1
f 913/9/1 914/10/1 915/11/1 916/12/1
f 917/9/1 918/10/1 919/11/1 920/12/1
f 921/9/1 922/10/1 923/11/1 924/12/1
f 925/9/1 926/10/1 927/11/1 928/12/1
f 929/9/1 930/10/1 931/11/1 932/12/1
f 933/9/1 934/10/1 935/11/1 936/12/1
f 937/9/1 938/10/1 939/11/1 940/12/1
f 941/9/1 942/10/1 943/11/1 944/12/1
f 945/9/1 946/10/1 947/11/1 948/12/1
f 949/9/1 950/10/1 951/11/1 952/12/1
f 953/9/1 954/10/1 955/11/1 956/12/1
f 957/9/1 958/10/1 959/11/1 960/12/1
f 961/9/1 962/10/1 963/11/1 964/12/1
f 965/9/1 966/10/1 967/11/1 968/12/1
f 969/9/1 970/10/1 971/11/1 972/12/1
f 973/9/1 974/10/1 975/11/1 976/12/1
f 977/9/1 978/10/1 979/11/1 980/12/1
f 981/9/1 982/10/1 983/11/1 984/12/1
f 985/9/1 986/10/1 987/11/1 988/12/1
f 989/9/1 990/10/1 991/11/1 992/12/1
f 993/9/1 994/10/1 995/11/1 996/12/1
f 997/9/1 998/10/1 999/11/1 1000/12/1
f 1001/9/1 1002/10/1 1003/11/1 1004/12/1
f 1005/9/1 1006/10/1 1007/11/1 1008/12/1
f 1009/9/1 1010/10/1 1011/11/1 1012/12/1
f 1013/9/1 1014/10/1 1015/11/1 1016/12/1
f 1017/9/1 1018/10/1 1019/11/1 1020/12/1
f 1021/9/1 1022/10/1 1023/11/1 1024/12/1
f 1025/9/1 1026/10/1 1027/11/1 1028/12/1
f 1029/9/1 1030/10/1 1031/11/1 1032/12/1
f 1033/9/1 1034/10/1 1035/11/1 1036/12/1
f 1037/9/1 1038/10/1 1039/11/1 1040/12/1
f 1041/9/1 1042/10/1 1043/11/1 1044/12/1
f 1045/9/1 1046/10/1 1047/11/1 1048/12/1
f 1049/9/1 1050/10/1 1051/11/1 1052/12/1
f 1053/9/1 1054/10/1 1055/11/1 1056/12/1
f 1057/9/1 1058/10/1 1059/11/1 1060/12/1
f 1061/9/1 1062/10/1 1063/11/1 1064/12/1
f 1065/9/1 1066/10/1 1067/11/1 1068/12/1
f 1069/9/1 1070/10/1 1071/11/1 1072/12/1
f 1073/9/1 1074/10/1 1075/11/1 1076/12/1
f 1077/9/1 1078/10/1 1079/11/1 1080/12/1
f 1081/9/1 1082/10/1 1083/11/1 1084/12/1
f 1085/9/1 1086/10/1 1087/11/1 1088/12/1
f 1089/9/1 1090/10/1 1091/11/1 1092/12/1
f 1093/9/1 1094/10/1 1095/11/1 1096/12/1
f 1097/9/1 1098/10/1 1099/11/1 1100/12/1
f 1101/9/1 1102/10/1 1103/11/1 1104/12/1
f 1105/9/1 1106/10/1 1107/11/1 1108/12/1
f 1109/9/1 1110/10/1 1111/11/1 1112/12/1
f 1113/9/1 1114/10/1 1115/11/1 1116/12/1
f 1117/9/1 1118/10/1 1119/11/1 1120/12/1
f 1121/9/1 1122/10/1 1123/11/1 1124/12/1
f 1125/9/1 1126/10/1 1127/11/1 1128/12/1
f 1129/9/1 1130/10/1 1131/11/1 1132/12/1
f 1133/9/1 1134/10/1 1135/11/1 1136/12/1
f 1137/9/1 1138/10/1 1139/11/1 1140/12/1
f 1141/9/1 1142/10/1 1143/11/1 1144/12/1
f 1145/9/1 1146/10/1 1147/11/1 1148/12/1
f 1149/9/1 1150/10/1 1151/11/1 1152/12/1
f 1153/9/1 1154/10/1 1155/11/1 1156/12/1
f 1157/9/1 1158/10/1 1159/11/1 1160/12/1
f 1161/9/1 1162/10/1 1163/11/1 1164/12/1
f 1165/9/1 1166/10/1 1167/11/1 1168/12/1
f 1169/9/1 1170/10/1 1171/11/1 1172/12/1
f 1173/9/1 1174/10/1 1175/11/1 1176/12/1
f 1177/9/1 1178/10/1 1179/11/1 1180/12/1
f 1181/9/1 1182/10/1 1183/11/1 1184/12/1
f 1185/9/1 1186/10/1 1187/11/1 1188/12/1
f 1189/9/1 1190/10/1 1191/11/1 1192/12/1
f 1193/9/1 1194/10/1 1195/11/1 1196/12/1

