# Tiled2Unity generated file. Do not modify by hand.
# Wavefront file for 'Monk2DMap1_mesh_0002.obj'

# Vertices (Count = 48)
v -36 -30 0
v -37 -30 0
v -37 -29 0
v -36 -29 0
v -37 -29 0
v -38 -29 0
v -38 -28 0
v -37 -28 0
v -38 -28 0
v -39 -28 0
v -39 -27 0
v -38 -27 0
v -39 -27 0
v -40 -27 0
v -40 -26 0
v -39 -26 0
v -40 -26 0
v -41 -26 0
v -41 -25 0
v -40 -25 0
v -41 -25 0
v -42 -25 0
v -42 -24 0
v -41 -24 0
v -42 -24 0
v -43 -24 0
v -43 -23 0
v -42 -23 0
v -43 -23 0
v -44 -23 0
v -44 -22 0
v -43 -22 0
v -67 -16 0
v -68 -16 0
v -68 -15 0
v -67 -15 0
v -68 -15 0
v -69 -15 0
v -69 -14 0
v -68 -14 0
v -69 -14 0
v -70 -14 0
v -70 -13 0
v -69 -13 0
v -70 -13 0
v -71 -13 0
v -71 -12 0
v -70 -12 0

# Texture cooridinates (Count = 4)
vt 0.0001220703 0.0001220703
vt 0.9998779 0.0001220703
vt 0.9998779 0.9998779
vt 0.0001220703 0.9998779

# Normal
vn 0 0 -1

# Mesh description
g Monk2DMap1_mesh_0002

# Faces
f 1/1/1 2/2/1 3/3/1 4/4/1
f 5/1/1 6/2/1 7/3/1 8/4/1
f 9/1/1 10/2/1 11/3/1 12/4/1
f 13/1/1 14/2/1 15/3/1 16/4/1
f 17/1/1 18/2/1 19/3/1 20/4/1
f 21/1/1 22/2/1 23/3/1 24/4/1
f 25/1/1 26/2/1 27/3/1 28/4/1
f 29/1/1 30/2/1 31/3/1 32/4/1
f 33/1/1 34/2/1 35/3/1 36/4/1
f 37/1/1 38/2/1 39/3/1 40/4/1
f 41/1/1 42/2/1 43/3/1 44/4/1
f 45/1/1 46/2/1 47/3/1 48/4/1

